<svg width="191" height="65" viewBox="0 0 191 65" fill="none" xmlns="http://www.w3.org/2000/svg">
<path fill-rule="evenodd" clip-rule="evenodd" d="M191 0H0V65H191V0ZM188.14 32.7957C188.14 49.1143 146.47 62.3323 95.07 62.3323C43.67 62.3323 2 49.1279 2 32.8093C2 16.4908 43.68 3.2728 95.07 3.2728C146.46 3.2728 188.14 16.4772 188.14 32.7957Z" fill="white"/>
<path d="M188.13 32.8094C188.13 16.4908 146.46 3.27283 95.07 3.27283C43.67 3.27283 2 16.4908 2 32.8094C2 36.9298 4.66 40.8462 9.46 44.4091C23.67 33.8701 56.65 26.4859 95.07 26.4859C133.49 26.4859 166.47 33.8701 180.67 44.4091C185.47 40.8462 188.13 36.9162 188.13 32.8094Z" fill="#3E2B2F"/>
</svg>
